name rise38.3101peak57.3503fall81.6963.mot
datacolumns 19
datarows 12
range 10.22163400000000 10.23996400000000
endheader
time	ground_force1_vx	ground_force1_vy	ground_force1_vz	ground_force1_px	ground_force1_py	ground_force1_pz	ground_force2_vx	ground_force2_vy	ground_force2_vz	ground_force2_px	ground_force2_py	ground_force2_pz	ground_torque1_x	ground_torque1_y	ground_torque1_z	ground_torque2_x	ground_torque2_y	ground_torque2_z	
10.22163400000000	-3.91646000000000	671.58098099999995	43.63021000000000	0.23083700000000	0.00000000000000	0.08752600000000	0.00000000000000	0.00000000000000	0.00000000000000	0.00000000000000	0.00000000000000	0.00000000000000	0.00000000000000	19.42443400000000	0.00000000000000	0.00000000000000	0.00000000000000	0.00000000000000	
10.22331300000000	-4.47816500000000	672.89282100000003	43.69802700000000	0.23008000000000	0.00000000000000	0.08751900000000	0.00000000000000	0.00000000000000	0.00000000000000	0.00000000000000	0.00000000000000	0.00000000000000	0.00000000000000	19.51419500000000	0.00000000000000	0.00000000000000	0.00000000000000	0.00000000000000	
10.22497000000000	-5.04452100000000	674.26629700000001	43.76959700000000	0.22930400000000	0.00000000000000	0.08751400000000	0.00000000000000	0.00000000000000	0.00000000000000	0.00000000000000	0.00000000000000	0.00000000000000	0.00000000000000	19.60705500000000	0.00000000000000	0.00000000000000	0.00000000000000	0.00000000000000	
10.22663300000000	-5.61568800000000	675.69890599999997	43.84453400000000	0.22850900000000	0.00000000000000	0.08751000000000	0.00000000000000	0.00000000000000	0.00000000000000	0.00000000000000	0.00000000000000	0.00000000000000	0.00000000000000	19.70278300000000	0.00000000000000	0.00000000000000	0.00000000000000	0.00000000000000	
10.22831000000000	-6.19180100000000	677.18813599999999	43.92246500000000	0.22769300000000	0.00000000000000	0.08750700000000	0.00000000000000	0.00000000000000	0.00000000000000	0.00000000000000	0.00000000000000	0.00000000000000	0.00000000000000	19.80115600000000	0.00000000000000	0.00000000000000	0.00000000000000	0.00000000000000	
10.22996400000000	-6.77296800000000	678.73147200000005	44.00302800000000	0.22685600000000	0.00000000000000	0.08750500000000	0.00000000000000	0.00000000000000	0.00000000000000	0.00000000000000	0.00000000000000	0.00000000000000	0.00000000000000	19.90195900000000	0.00000000000000	0.00000000000000	0.00000000000000	0.00000000000000	
10.23163400000000	-7.35926800000000	680.32640400000003	44.08587800000000	0.22599700000000	0.00000000000000	0.08750500000000	0.00000000000000	0.00000000000000	0.00000000000000	0.00000000000000	0.00000000000000	0.00000000000000	0.00000000000000	20.00498900000000	0.00000000000000	0.00000000000000	0.00000000000000	0.00000000000000	
10.23329700000000	-7.95075600000000	681.97043199999996	44.17068400000000	0.22511500000000	0.00000000000000	0.08750500000000	0.00000000000000	0.00000000000000	0.00000000000000	0.00000000000000	0.00000000000000	0.00000000000000	0.00000000000000	20.11004800000000	0.00000000000000	0.00000000000000	0.00000000000000	0.00000000000000	
10.23496300000000	-8.54745400000000	683.66107499999998	44.25713200000000	0.22421100000000	0.00000000000000	0.08750600000000	0.00000000000000	0.00000000000000	0.00000000000000	0.00000000000000	0.00000000000000	0.00000000000000	0.00000000000000	20.21695200000000	0.00000000000000	0.00000000000000	0.00000000000000	0.00000000000000	
10.23662800000000	-9.14936100000000	685.39587900000004	44.34492500000000	0.22328500000000	0.00000000000000	0.08750900000000	0.00000000000000	0.00000000000000	0.00000000000000	0.00000000000000	0.00000000000000	0.00000000000000	0.00000000000000	20.32552400000000	0.00000000000000	0.00000000000000	0.00000000000000	0.00000000000000	
10.23829900000000	-9.75644300000000	687.17241700000000	44.43378300000000	0.22233600000000	0.00000000000000	0.08751200000000	0.00000000000000	0.00000000000000	0.00000000000000	0.00000000000000	0.00000000000000	0.00000000000000	0.00000000000000	20.43559700000000	0.00000000000000	0.00000000000000	0.00000000000000	0.00000000000000	
10.23996400000000	-10.36864100000000	688.98830499999997	44.52344600000000	0.22136400000000	0.00000000000000	0.08751600000000	0.00000000000000	0.00000000000000	0.00000000000000	0.00000000000000	0.00000000000000	0.00000000000000	0.00000000000000	20.54701600000000	0.00000000000000	0.00000000000000	0.00000000000000	0.00000000000000	
